<svg xmlns="http://www.w3.org/2000/svg" width="1360" height="700" viewBox="0 0 1360 700" role="img" aria-labelledby="title desc">
  <title id="title">Swipe Todo MVP Wireframe</title>
  <desc id="desc">오늘, 이번 주, 데일리, 다음 주 화면을 보여주는 모바일 와이어프레임</desc>
  <rect width="1360" height="700" fill="#F7F7F5"/>
  <text x="56" y="52" font-family="Arial, Apple SD Gothic Neo, sans-serif" font-size="28" font-weight="700" fill="#161616">Swipe Todo</text>
  <text x="56" y="82" font-family="Arial, Apple SD Gothic Neo, sans-serif" font-size="15" fill="#666666">MVP MOBILE WIREFRAME / iPhone-first PWA</text>

  <!-- Today -->
  <g transform="translate(48 116)">
    <rect width="280" height="528" rx="30" fill="#FFFFFF" stroke="#171717" stroke-width="2"/>
    <rect x="104" y="13" width="72" height="7" rx="4" fill="#D7D7D7"/>
    <text x="24" y="57" font-family="Arial, Apple SD Gothic Neo, sans-serif" font-size="21" font-weight="700" fill="#171717">오늘</text>
    <text x="210" y="56" font-family="Arial, Apple SD Gothic Neo, sans-serif" font-size="12" fill="#777777">5월 27일</text>
    <text x="24" y="83" font-family="Arial, Apple SD Gothic Neo, sans-serif" font-size="13" fill="#777777">남은 일 2개</text>
    <rect x="20" y="103" width="240" height="38" rx="12" fill="#F1F1F1"/>
    <rect x="26" y="109" width="66" height="26" rx="9" fill="#171717"/>
    <text x="47" y="127" font-family="Arial, Apple SD Gothic Neo, sans-serif" font-size="12" fill="#FFFFFF">오늘</text>
    <text x="112" y="127" font-family="Arial, Apple SD Gothic Neo, sans-serif" font-size="12" fill="#555555">이번 주</text>
    <text x="201" y="127" font-family="Arial, Apple SD Gothic Neo, sans-serif" font-size="12" fill="#555555">데일리</text>
    <rect x="20" y="159" width="240" height="42" rx="10" fill="#FFFFFF" stroke="#B9B9B9"/>
    <text x="34" y="185" font-family="Arial, Apple SD Gothic Neo, sans-serif" font-size="12" fill="#999999">오늘 할 일 입력</text>
    <rect x="218" y="166" width="35" height="28" rx="8" fill="#171717"/>
    <text x="226" y="185" font-family="Arial, Apple SD Gothic Neo, sans-serif" font-size="12" fill="#FFFFFF">추가</text>
    <rect x="20" y="223" width="240" height="55" rx="12" fill="#FBFBFB" stroke="#E0E0E0"/>
    <rect x="34" y="243" width="15" height="15" rx="4" fill="#FFFFFF" stroke="#333333"/>
    <text x="61" y="255" font-family="Arial, Apple SD Gothic Neo, sans-serif" font-size="13" fill="#222222">포트폴리오 정리</text>
    <rect x="20" y="290" width="240" height="55" rx="12" fill="#FBFBFB" stroke="#E0E0E0"/>
    <rect x="34" y="310" width="15" height="15" rx="4" fill="#FFFFFF" stroke="#333333"/>
    <text x="61" y="322" font-family="Arial, Apple SD Gothic Neo, sans-serif" font-size="13" fill="#222222">운동 20분</text>
    <rect x="20" y="357" width="240" height="55" rx="12" fill="#F4F4F4"/>
    <rect x="34" y="377" width="15" height="15" rx="4" fill="#D3D3D3"/>
    <path d="M37 384 l4 4 8 -10" stroke="#FFFFFF" stroke-width="2" fill="none"/>
    <text x="61" y="389" font-family="Arial, Apple SD Gothic Neo, sans-serif" font-size="13" fill="#9A9A9A">영양제 먹기</text>
    <text x="190" y="480" font-family="Arial, Apple SD Gothic Neo, sans-serif" font-size="12" fill="#888888">Swipe →</text>
  </g>

  <!-- This week -->
  <g transform="translate(376 116)">
    <rect width="280" height="528" rx="30" fill="#FFFFFF" stroke="#171717" stroke-width="2"/>
    <rect x="104" y="13" width="72" height="7" rx="4" fill="#D7D7D7"/>
    <text x="24" y="57" font-family="Arial, Apple SD Gothic Neo, sans-serif" font-size="21" font-weight="700" fill="#171717">이번 주</text>
    <text x="24" y="83" font-family="Arial, Apple SD Gothic Neo, sans-serif" font-size="13" fill="#777777">주간 대기 목록 2개</text>
    <rect x="20" y="103" width="240" height="38" rx="12" fill="#F1F1F1"/>
    <text x="42" y="127" font-family="Arial, Apple SD Gothic Neo, sans-serif" font-size="12" fill="#555555">오늘</text>
    <rect x="93" y="109" width="78" height="26" rx="9" fill="#171717"/>
    <text x="111" y="127" font-family="Arial, Apple SD Gothic Neo, sans-serif" font-size="12" fill="#FFFFFF">이번 주</text>
    <text x="201" y="127" font-family="Arial, Apple SD Gothic Neo, sans-serif" font-size="12" fill="#555555">데일리</text>
    <rect x="20" y="159" width="240" height="42" rx="10" fill="#FFFFFF" stroke="#B9B9B9"/>
    <text x="34" y="185" font-family="Arial, Apple SD Gothic Neo, sans-serif" font-size="12" fill="#999999">이번 주 할 일 입력</text>
    <rect x="218" y="166" width="35" height="28" rx="8" fill="#171717"/>
    <text x="226" y="185" font-family="Arial, Apple SD Gothic Neo, sans-serif" font-size="12" fill="#FFFFFF">추가</text>
    <rect x="20" y="223" width="240" height="65" rx="12" fill="#FBFBFB" stroke="#E0E0E0"/>
    <text x="34" y="248" font-family="Arial, Apple SD Gothic Neo, sans-serif" font-size="13" fill="#222222">병원 예약하기</text>
    <rect x="154" y="254" width="90" height="24" rx="8" fill="#EFEFEF"/>
    <text x="174" y="270" font-family="Arial, Apple SD Gothic Neo, sans-serif" font-size="11" fill="#333333">오늘로 이동</text>
    <rect x="20" y="300" width="240" height="65" rx="12" fill="#FBFBFB" stroke="#E0E0E0"/>
    <text x="34" y="325" font-family="Arial, Apple SD Gothic Neo, sans-serif" font-size="13" fill="#222222">책 한 챕터 읽기</text>
    <rect x="154" y="331" width="90" height="24" rx="8" fill="#EFEFEF"/>
    <text x="174" y="347" font-family="Arial, Apple SD Gothic Neo, sans-serif" font-size="11" fill="#333333">오늘로 이동</text>
  </g>

  <!-- Daily -->
  <g transform="translate(704 116)">
    <rect width="280" height="528" rx="30" fill="#FFFFFF" stroke="#171717" stroke-width="2"/>
    <rect x="104" y="13" width="72" height="7" rx="4" fill="#D7D7D7"/>
    <text x="24" y="57" font-family="Arial, Apple SD Gothic Neo, sans-serif" font-size="21" font-weight="700" fill="#171717">데일리</text>
    <text x="24" y="83" font-family="Arial, Apple SD Gothic Neo, sans-serif" font-size="13" fill="#777777">매일 오늘 목록에 자동 생성</text>
    <rect x="20" y="103" width="240" height="38" rx="12" fill="#F1F1F1"/>
    <text x="42" y="127" font-family="Arial, Apple SD Gothic Neo, sans-serif" font-size="12" fill="#555555">오늘</text>
    <text x="112" y="127" font-family="Arial, Apple SD Gothic Neo, sans-serif" font-size="12" fill="#555555">이번 주</text>
    <rect x="185" y="109" width="68" height="26" rx="9" fill="#171717"/>
    <text x="201" y="127" font-family="Arial, Apple SD Gothic Neo, sans-serif" font-size="12" fill="#FFFFFF">데일리</text>
    <rect x="20" y="159" width="240" height="42" rx="10" fill="#FFFFFF" stroke="#B9B9B9"/>
    <text x="34" y="185" font-family="Arial, Apple SD Gothic Neo, sans-serif" font-size="12" fill="#999999">반복 루틴 입력</text>
    <rect x="218" y="166" width="35" height="28" rx="8" fill="#171717"/>
    <text x="226" y="185" font-family="Arial, Apple SD Gothic Neo, sans-serif" font-size="12" fill="#FFFFFF">추가</text>
    <rect x="20" y="223" width="240" height="55" rx="12" fill="#FBFBFB" stroke="#E0E0E0"/>
    <text x="34" y="255" font-family="Arial, Apple SD Gothic Neo, sans-serif" font-size="13" fill="#222222">물 마시기</text>
    <rect x="201" y="241" width="42" height="22" rx="11" fill="#171717"/>
    <circle cx="232" cy="252" r="8" fill="#FFFFFF"/>
    <rect x="20" y="290" width="240" height="55" rx="12" fill="#FBFBFB" stroke="#E0E0E0"/>
    <text x="34" y="322" font-family="Arial, Apple SD Gothic Neo, sans-serif" font-size="13" fill="#222222">스트레칭</text>
    <rect x="201" y="308" width="42" height="22" rx="11" fill="#DEDEDE"/>
    <circle cx="212" cy="319" r="8" fill="#FFFFFF"/>
  </g>

  <!-- Next week -->
  <g transform="translate(1032 116)">
    <rect width="280" height="528" rx="30" fill="#FFFFFF" stroke="#171717" stroke-width="2"/>
    <rect x="104" y="13" width="72" height="7" rx="4" fill="#D7D7D7"/>
    <text x="24" y="57" font-family="Arial, Apple SD Gothic Neo, sans-serif" font-size="21" font-weight="700" fill="#171717">다음 주</text>
    <text x="24" y="83" font-family="Arial, Apple SD Gothic Neo, sans-serif" font-size="13" fill="#777777">미리 준비하는 목록</text>
    <rect x="20" y="103" width="240" height="42" rx="10" fill="#FFFFFF" stroke="#B9B9B9"/>
    <text x="34" y="129" font-family="Arial, Apple SD Gothic Neo, sans-serif" font-size="12" fill="#999999">다음 주 할 일 입력</text>
    <rect x="218" y="110" width="35" height="28" rx="8" fill="#171717"/>
    <text x="226" y="129" font-family="Arial, Apple SD Gothic Neo, sans-serif" font-size="12" fill="#FFFFFF">추가</text>
    <rect x="20" y="169" width="240" height="55" rx="12" fill="#FBFBFB" stroke="#E0E0E0"/>
    <text x="34" y="201" font-family="Arial, Apple SD Gothic Neo, sans-serif" font-size="13" fill="#222222">주간 회고 작성</text>
    <text x="226" y="201" font-family="Arial, Apple SD Gothic Neo, sans-serif" font-size="18" fill="#AAAAAA">×</text>
    <rect x="20" y="236" width="240" height="55" rx="12" fill="#FBFBFB" stroke="#E0E0E0"/>
    <text x="34" y="268" font-family="Arial, Apple SD Gothic Neo, sans-serif" font-size="13" fill="#222222">미용실 예약</text>
    <text x="226" y="268" font-family="Arial, Apple SD Gothic Neo, sans-serif" font-size="18" fill="#AAAAAA">×</text>
    <rect x="20" y="315" width="240" height="58" rx="12" fill="#F1F1F1"/>
    <text x="35" y="340" font-family="Arial, Apple SD Gothic Neo, sans-serif" font-size="11" fill="#555555">월요일이 되면 자동으로</text>
    <text x="35" y="358" font-family="Arial, Apple SD Gothic Neo, sans-serif" font-size="11" font-weight="700" fill="#333333">이번 주 목록으로 이동합니다.</text>
    <text x="24" y="480" font-family="Arial, Apple SD Gothic Neo, sans-serif" font-size="12" fill="#888888">← 기본 화면</text>
  </g>
</svg>
